<?xml version="1.0" standalone="no"?>
<!DOCTYPE svg PUBLIC "-//W3C//DTD SVG 20010904//EN"
 "http://www.w3.org/TR/2001/REC-SVG-20010904/DTD/svg10.dtd">
<svg version="1.0" xmlns="http://www.w3.org/2000/svg"
 width="410" height="404" viewBox="0 0 410 404"
 preserveAspectRatio="xMidYMid meet">

<g transform="translate(0.000000,358.000000) scale(0.100000,-0.100000)"
fill="#000000" stroke="none">
<path d="M1827 3208 c-41 -73 -92 -166 -113 -205 -22 -40 -42 -73 -46 -73 -5
0 -8 54 -8 120 l0 121 -87 -3 -88 -3 -3 -194 c-2 -106 -1 -204 2 -217 6 -23 9
-24 113 -24 114 0 150 12 192 65 l18 25 24 -45 24 -45 76 0 c63 0 80 4 107 23
45 33 55 48 187 272 64 110 122 205 127 210 18 17 0 -54 -67 -277 -35 -116
-62 -215 -59 -220 3 -4 47 -8 97 -8 l92 0 25 78 25 77 115 6 c78 3 125 10 146
21 80 43 146 152 152 253 5 73 -11 112 -60 147 -32 23 -38 23 -319 26 l-286 3
-129 -220 c-137 -233 -142 -238 -165 -161 -10 33 -9 42 8 67 55 77 173 289
173 309 0 2 -45 4 -99 4 l-100 0 -74 -132z m851 -10 c24 -24 14 -85 -19 -123
-29 -33 -35 -35 -91 -35 -67 0 -64 -13 -25 108 l20 62 51 0 c29 0 57 -5 64
-12z"/>
<path d="M2930 3198 l0 -84 88 -57 c153 -99 312 -254 400 -389 l37 -58 88 0
88 0 -27 49 c-46 85 -178 253 -262 333 -93 88 -213 180 -313 238 -106 62 -99
65 -99 -32z"/>
<path d="M1349 3192 c-211 -138 -406 -341 -515 -535 l-26 -47 89 0 88 0 37 58
c78 120 232 276 361 363 l57 40 0 84 c0 47 -4 85 -9 85 -5 0 -42 -22 -82 -48z"/>
<path d="M3187 2540 l-209 -5 -92 -165 c-51 -91 -106 -190 -123 -220 -16 -30
-76 -137 -131 -237 -56 -100 -117 -212 -136 -248 -37 -72 -54 -95 -67 -95 -5
0 -9 117 -9 259 0 145 -4 271 -10 285 l-10 26 -164 0 c-91 0 -167 4 -171 9 -3
5 6 45 19 88 13 43 32 105 41 138 9 33 21 65 25 70 14 18 15 62 1 79 -12 14
-41 16 -226 16 -241 0 -279 -7 -361 -69 -40 -29 -220 -241 -278 -326 -23 -33
-34 -8 -60 127 -33 172 -53 205 -146 247 -41 19 -65 21 -282 21 -216 0 -238
-2 -246 -17 -9 -16 -66 -202 -146 -473 -14 -47 -41 -139 -61 -205 -20 -66 -43
-140 -50 -165 -63 -221 -148 -497 -156 -507 -14 -16 7 -89 27 -97 9 -3 101 -6
205 -6 185 0 189 0 203 23 16 24 21 40 116 362 110 371 139 467 145 473 14 15
27 -31 69 -257 25 -134 53 -254 61 -267 12 -19 24 -24 60 -24 43 0 46 2 111
78 36 42 134 162 217 266 93 115 153 182 155 173 4 -19 -8 -60 -124 -437 -86
-282 -96 -329 -74 -369 10 -20 18 -21 208 -21 108 0 202 4 208 8 16 11 35 67
133 402 49 168 94 317 100 333 26 69 31 22 31 -325 0 -337 1 -354 20 -386 l21
-34 227 4 227 3 63 34 c104 57 170 137 326 401 366 617 401 675 404 655 1 -11
-20 -96 -49 -190 -28 -93 -75 -253 -106 -355 -30 -102 -73 -243 -96 -315 -22
-71 -40 -147 -40 -168 2 -67 3 -67 223 -67 194 0 198 0 212 23 9 12 38 98 66
192 31 103 58 175 68 182 13 10 83 13 273 13 254 0 257 0 311 26 126 58 233
174 309 334 54 114 72 185 78 310 7 140 -14 201 -96 280 -86 83 -147 102 -331
106 -291 7 -710 9 -913 4z m866 -340 c72 -57 51 -183 -49 -299 -52 -60 -88
-73 -221 -79 -96 -4 -113 -2 -119 11 -8 22 94 359 114 375 10 8 54 12 133 12
101 0 120 -3 142 -20z"/>
<path d="M826 1038 c55 -107 184 -269 297 -373 272 -251 596 -394 965 -427
367 -32 760 74 1057 287 180 128 373 337 459 496 l27 49 -88 0 -88 0 -37 -58
c-144 -221 -415 -434 -683 -535 -566 -214 -1207 -54 -1608 401 -37 42 -84 103
-105 134 l-37 58 -88 0 -88 0 17 -32z"/>
</g>
</svg>
